<svg width="64" height="64" viewBox="0 0 64 64" fill="none" xmlns="http://www.w3.org/2000/svg">
  <rect width="64" height="64" rx="16" fill="#050505"/>
  <g transform="translate(7 6)">
    <path d="M10.7433 38.6466C10.6188 38.8321 10.2274 38.9107 10.0191 38.9746C2.07964 41.398 -1.29667 35.0587 0.449044 27.7122C1.68612 22.5071 6.89502 15.911 11.3472 13.2603C14.5938 11.3264 18.1229 12.6513 19.541 16.1909C21.5076 21.0984 16.6702 23.5343 13.6885 26.0415C11.3546 28.0036 6.62186 32.083 5.5962 34.9413C4.30051 38.5491 8.32885 38.873 10.7444 38.6466H10.7433Z" fill="white"/>
    <path d="M12.736 11.08L12.4179 10.2342C9.93116 -1.65399 21.2396 -1.82169 28.571 2.85622C31.3665 4.64018 36.2342 9.32438 37.5424 12.4426C40.1484 18.6509 32.3764 24.0164 27.673 17.9958C25.2962 14.953 19.4049 6.22499 15.7272 5.57304C14.0663 5.2785 13.3556 6.13485 12.9621 7.6966C12.9014 7.93767 12.735 8.57914 12.735 8.77829V11.0832V11.0811L12.736 11.08Z" fill="white"/>
    <path d="M37.2692 40.9031C37.444 41.0289 37.5309 41.4439 37.5874 41.6546C38.7344 45.9584 37.7339 49.9948 33.3759 51.4863C26.0173 54.0061 16.9935 46.7612 13.1693 40.6882C10.9955 37.2388 11.7564 33.3941 15.4812 31.6657C20.2484 29.4552 22.6399 34.5492 25.0502 37.6549C26.8399 39.9608 31.7662 46.1271 34.5952 46.3619C35.7914 46.4615 36.5293 45.8829 36.9134 44.7184C36.9647 44.5622 37.2692 43.2856 37.2692 43.2069V40.9021V40.9031Z" fill="white"/>
    <path d="M39.261 13.8399C39.3573 13.6648 39.732 13.5925 39.9162 13.5338C47.8734 11.0161 51.3575 17.4623 49.5218 24.8329C48.2052 30.1208 43.1407 36.5481 38.5995 39.2597C32.657 42.8088 26.8599 34.5881 32.1578 29.7425C33.579 28.4417 35.3624 27.251 36.8611 25.9743C38.9889 24.1621 44.4636 19.3814 44.6823 16.5106C44.8927 13.7403 41.1019 13.6721 39.262 13.8399H39.261Z" fill="white"/>
  </g>
</svg>
